<svg xmlns="http://www.w3.org/2000/svg" viewBox="0 0 100 100">
  <rect width="100" height="100" fill="#0c1c1f"/>

  <!-- Ring 1: r=42, 24 dots, dotR=5.5, start=-90° -->
  <circle cx="50" cy="8" r="5.5" fill="white"/>
  <circle cx="60.9" cy="9.4" r="5.5" fill="white"/>
  <circle cx="71" cy="13.6" r="5.5" fill="white"/>
  <circle cx="79.7" cy="20.3" r="5.5" fill="white"/>
  <circle cx="86.4" cy="29" r="5.5" fill="white"/>
  <circle cx="90.6" cy="39.1" r="5.5" fill="white"/>
  <circle cx="92" cy="50" r="5.5" fill="white"/>
  <circle cx="90.6" cy="60.9" r="5.5" fill="white"/>
  <circle cx="86.4" cy="71" r="5.5" fill="white"/>
  <circle cx="79.7" cy="79.7" r="5.5" fill="white"/>
  <circle cx="71" cy="86.4" r="5.5" fill="white"/>
  <circle cx="60.9" cy="90.6" r="5.5" fill="white"/>
  <circle cx="50" cy="92" r="5.5" fill="white"/>
  <circle cx="39.1" cy="90.6" r="5.5" fill="white"/>
  <circle cx="29" cy="86.4" r="5.5" fill="white"/>
  <circle cx="20.3" cy="79.7" r="5.5" fill="white"/>
  <circle cx="13.6" cy="71" r="5.5" fill="white"/>
  <circle cx="9.4" cy="60.9" r="5.5" fill="white"/>
  <circle cx="8" cy="50" r="5.5" fill="white"/>
  <circle cx="9.4" cy="39.1" r="5.5" fill="white"/>
  <circle cx="13.6" cy="29" r="5.5" fill="white"/>
  <circle cx="20.3" cy="20.3" r="5.5" fill="white"/>
  <circle cx="29" cy="13.6" r="5.5" fill="white"/>
  <circle cx="39.1" cy="9.4" r="5.5" fill="white"/>

  <!-- Ring 2: r=34, 20 dots, dotR=4.2, start=-81° (staggered +9°) -->
  <circle cx="55.3" cy="16.4" r="4.2" fill="white"/>
  <circle cx="65.4" cy="19.7" r="4.2" fill="white"/>
  <circle cx="74" cy="26" r="4.2" fill="white"/>
  <circle cx="80.3" cy="34.6" r="4.2" fill="white"/>
  <circle cx="83.6" cy="44.7" r="4.2" fill="white"/>
  <circle cx="83.6" cy="55.3" r="4.2" fill="white"/>
  <circle cx="80.3" cy="65.4" r="4.2" fill="white"/>
  <circle cx="74" cy="74" r="4.2" fill="white"/>
  <circle cx="65.4" cy="80.3" r="4.2" fill="white"/>
  <circle cx="55.3" cy="83.6" r="4.2" fill="white"/>
  <circle cx="44.7" cy="83.6" r="4.2" fill="white"/>
  <circle cx="34.6" cy="80.3" r="4.2" fill="white"/>
  <circle cx="26" cy="74" r="4.2" fill="white"/>
  <circle cx="19.7" cy="65.4" r="4.2" fill="white"/>
  <circle cx="16.4" cy="55.3" r="4.2" fill="white"/>
  <circle cx="16.4" cy="44.7" r="4.2" fill="white"/>
  <circle cx="19.7" cy="34.6" r="4.2" fill="white"/>
  <circle cx="26" cy="26" r="4.2" fill="white"/>
  <circle cx="34.6" cy="19.7" r="4.2" fill="white"/>
  <circle cx="44.7" cy="16.4" r="4.2" fill="white"/>

  <!-- Ring 3: r=26, 16 dots, dotR=3.1, start=-72° (staggered +18°) -->
  <circle cx="58" cy="25.3" r="3.1" fill="white"/>
  <circle cx="66.9" cy="30.2" r="3.1" fill="white"/>
  <circle cx="73.2" cy="38.2" r="3.1" fill="white"/>
  <circle cx="75.9" cy="47.9" r="3.1" fill="white"/>
  <circle cx="74.7" cy="58" r="3.1" fill="white"/>
  <circle cx="69.8" cy="66.9" r="3.1" fill="white"/>
  <circle cx="61.8" cy="73.2" r="3.1" fill="white"/>
  <circle cx="52.1" cy="75.9" r="3.1" fill="white"/>
  <circle cx="42" cy="74.7" r="3.1" fill="white"/>
  <circle cx="33.1" cy="69.8" r="3.1" fill="white"/>
  <circle cx="26.8" cy="61.8" r="3.1" fill="white"/>
  <circle cx="24.1" cy="52.1" r="3.1" fill="white"/>
  <circle cx="25.3" cy="42" r="3.1" fill="white"/>
  <circle cx="30.2" cy="33.1" r="3.1" fill="white"/>
  <circle cx="38.2" cy="26.8" r="3.1" fill="white"/>
  <circle cx="47.9" cy="24.1" r="3.1" fill="white"/>

  <!-- Ring 4: r=18, 12 dots, dotR=2.1, start=-63° (staggered +27°) -->
  <circle cx="58.2" cy="33.9" r="2.1" fill="white"/>
  <circle cx="65.1" cy="40.2" r="2.1" fill="white"/>
  <circle cx="68" cy="49.1" r="2.1" fill="white"/>
  <circle cx="66" cy="58.2" r="2.1" fill="white"/>
  <circle cx="59.8" cy="65.1" r="2.1" fill="white"/>
  <circle cx="50.9" cy="68" r="2.1" fill="white"/>
  <circle cx="41.8" cy="66" r="2.1" fill="white"/>
  <circle cx="34.9" cy="59.8" r="2.1" fill="white"/>
  <circle cx="32" cy="50.9" r="2.1" fill="white"/>
  <circle cx="34" cy="41.8" r="2.1" fill="white"/>
  <circle cx="40.2" cy="34.9" r="2.1" fill="white"/>
  <circle cx="49.1" cy="32" r="2.1" fill="white"/>

  <!-- Ring 5: r=11, 8 dots, dotR=1.4, start=-54° (staggered +36°) -->
  <circle cx="56.5" cy="41.1" r="1.4" fill="white"/>
  <circle cx="60.9" cy="48.3" r="1.4" fill="white"/>
  <circle cx="58.9" cy="56.5" r="1.4" fill="white"/>
  <circle cx="51.7" cy="60.9" r="1.4" fill="white"/>
  <circle cx="43.5" cy="58.9" r="1.4" fill="white"/>
  <circle cx="39.1" cy="51.7" r="1.4" fill="white"/>
  <circle cx="41.1" cy="43.5" r="1.4" fill="white"/>
  <circle cx="48.3" cy="39.1" r="1.4" fill="white"/>
</svg>
